<svg width="96" height="20" viewBox="0 0 96 20" fill="currentColor" xmlns="http://www.w3.org/2000/svg">
<path fill-rule="evenodd" clip-rule="evenodd" d="M47.1174 10.1217C47.1257 10.0834 47.1312 10.0441 47.1336 10.0038C47.1476 9.7725 47.1545 9.58554 47.1545 9.44293C47.1545 6.78191 46.2214 4.54591 44.3552 2.73494C42.5017 0.911646 40.2067 0 37.4705 0C34.6712 0 32.3069 0.930125 30.3777 2.79038C28.461 4.65063 27.5027 6.92974 27.5027 9.62772C27.5027 12.338 28.4547 14.611 30.3588 16.4466C32.2628 18.2822 34.3882 19.2 37.4137 19.2C40.267 19.2 44.9942 18.112 46.4167 13.1709C46.5551 12.6901 46.1753 12.2333 45.675 12.2333H40.0806C39.2772 13.0567 38.8323 13.3421 37.6785 13.3421C36.5248 13.3421 36.0267 12.9725 35.4845 12.2333C35.1895 11.8216 34.9767 11.3392 34.846 10.786H46.3368C46.7297 10.786 47.0772 10.5029 47.1174 10.1217ZM37.6785 5.41444C38.9746 5.41444 39.7571 6.0696 40.0261 7.37991H35.0349C35.1622 7.06775 35.3246 6.78218 35.5223 6.5232C36.0771 5.78402 36.7959 5.41444 37.6785 5.41444Z" fill="currentColor"/>
<path d="M87.8291 11.8822V19.0337C87.249 19.1322 86.7194 19.1815 86.2403 19.1815C83.4032 19.1815 81.0389 18.2699 79.1475 16.4466C77.256 14.6233 76.3103 12.338 76.3103 9.59077C76.3103 6.91743 77.2624 4.65063 79.1664 2.79038C81.083 0.930133 83.4095 7.7661e-06 86.1457 7.7661e-06C89.1972 7.7661e-06 91.5993 0.874695 93.352 2.62407C95.1173 4.36112 96 6.73879 96 9.75708V17.9935C96 18.4353 95.6418 18.7935 95.2 18.7935H88.9261V10.256C88.9261 9.28278 88.6802 8.50665 88.1884 7.92763C87.7093 7.34861 87.0599 7.0591 86.2403 7.0591C85.4963 7.0591 84.8532 7.32397 84.311 7.85371C83.7688 8.38345 83.4977 9.01175 83.4977 9.7386C83.4977 10.5024 83.7436 11.1307 84.2354 11.6235C84.7271 12.1163 85.3513 12.3627 86.1079 12.3627C86.7257 12.3627 87.2995 12.2025 87.8291 11.8822Z" fill="currentColor"/>
<path d="M87.8291 19.0328V11.8813C88.1885 11.6226 88.7597 11.1266 88.9262 10.2551V18.7926L87.8291 19.0328Z" fill="currentColor"/>
<path d="M25.8746 18.0304C25.8746 18.4722 25.5164 18.8304 25.0746 18.8304H18.8007V8.88855C18.8007 8.12474 18.7187 7.595 18.5548 7.29933C18.3909 7.00366 18.0946 6.85583 17.6658 6.85583C16.8714 6.85583 16.4742 7.53956 16.4742 8.90703V18.8304H9.40034V8.88855C9.40034 8.12474 9.31208 7.595 9.13554 7.29933C8.97162 7.00366 8.6753 6.85583 8.24658 6.85583C7.46479 6.85583 7.0739 7.53956 7.0739 8.90703V18.8304H4.8C2.14903 18.8304 0 16.6814 0 14.0304V7.48413C0 5.41444 0.712434 3.65891 2.1373 2.21752C3.56217 0.763819 5.28966 0.0369669 7.31978 0.0369669C9.41295 0.0369669 11.2918 0.899335 12.9562 2.62407C14.8098 0.899335 16.6634 0.0369669 18.517 0.0369669C20.8749 0.0369669 22.7664 0.874695 24.1912 2.55015C25.3135 3.85602 25.8746 5.75939 25.8746 8.26026V18.0304Z" fill="currentColor"/>
<path d="M74.6822 18.0304C74.6822 18.4722 74.3241 18.8304 73.8822 18.8304H67.6083V8.88855C67.6083 8.12474 67.5264 7.595 67.3624 7.29933C67.1985 7.00366 66.9022 6.85583 66.4735 6.85583C65.6791 6.85583 65.2819 7.53956 65.2819 8.90703V18.8304H58.208V8.88855C58.208 8.12474 58.1197 7.595 57.9432 7.29933C57.7793 7.00366 57.4829 6.85583 57.0542 6.85583C56.2724 6.85583 55.8815 7.53956 55.8815 8.90703V18.8304H53.6076C50.9567 18.8304 48.8076 16.6814 48.8076 14.0304V7.48413C48.8076 5.41444 49.5201 3.65891 50.9449 2.21752C52.3698 0.763819 54.0973 0.0369669 56.1274 0.0369669C58.2206 0.0369669 60.0994 0.899335 61.7638 2.62407C63.6174 0.899335 65.471 0.0369669 67.3246 0.0369669C69.6826 0.0369669 71.574 0.874695 72.9989 2.55015C74.1211 3.85602 74.6822 5.75939 74.6822 8.26026V18.0304Z" fill="currentColor"/>
</svg>
