<svg viewBox="0 0 150 150" fill="none" xmlns="http://www.w3.org/2000/svg">
    <circle cx="75" cy="75" r="75" fill="white"/>
    <rect x="35" y="35" width="80" height="80" rx="12" fill="#BDBDBD"/>
    <path d="M65.304 69.608C67.1287 69.608 68.608 68.1287 68.608 66.304C68.608 64.4793 67.1287 63 65.304 63C63.4793 63 62 64.4793 62 66.304C62 68.1287 63.4793 69.608 65.304 69.608Z" fill="white"/>
    <path d="M85.1369 69.608C86.9616 69.608 88.4409 68.1287 88.4409 66.304C88.4409 64.4793 86.9616 63 85.1369 63C83.3121 63 81.8329 64.4793 81.8329 66.304C81.8329 68.1287 83.3121 69.608 85.1369 69.608Z" fill="white"/>
</svg>
