<svg viewBox="0 0 150 150" fill="currentColor" xmlns="http://www.w3.org/2000/svg">
    <circle cx="75" cy="75" r="75" fill="white"/>
    <path d="M85.9944 106.576C86.0264 107.816 85.9144 109.024 85.6744 110.184C85.1624 112.672 87.0505 115 89.5866 115H97.9949C104.619 115 109.995 109.624 109.995 103V88.84C112.468 90.272 115.34 91.072 118.42 90.992C126.7 90.776 133.58 84.064 133.98 75.792C134.429 66.592 127.1 59 117.996 59C115.076 59 112.348 59.792 109.995 61.16V47C110.003 40.376 104.627 35 98.0029 35H89.5946C87.0585 35 85.1704 37.328 85.6824 39.816C85.9224 40.976 86.0344 42.184 86.0024 43.424C85.7864 51.704 79.0741 58.584 70.8018 58.984C61.6014 59.432 54.009 52.104 54.009 43C54.009 41.888 54.121 40.8 54.3451 39.752C54.8491 37.296 52.921 35 50.4089 35H42.0005C35.3762 35 30 40.376 30 47V55.592C30 58.2 32.4481 60.088 34.9842 59.464C36.1683 59.176 37.4003 59.016 38.6724 59C47.1447 58.928 54.3531 65.704 54.7851 74.168C55.2491 83.384 47.9208 91 38.8084 91C37.5043 91 36.2403 90.84 35.0322 90.552C32.4801 89.928 30 91.76 30 94.384V103C30 109.624 35.3762 115 42.0005 115H50.4089C52.921 115 54.8491 112.704 54.3371 110.248C54.121 109.2 54.001 108.112 54.001 107C54.001 97.896 61.6014 90.576 70.7938 91.016C79.0661 91.416 85.7784 98.296 85.9944 106.576Z" fill="currentColor"/>
    <path d="M60.1772 69.6158C62.0019 69.6158 63.4812 68.1366 63.4812 66.3118C63.4812 64.4871 62.0019 63.0078 60.1772 63.0078C58.3524 63.0078 56.8732 64.4871 56.8732 66.3118C56.8732 68.1366 58.3524 69.6158 60.1772 69.6158Z" fill="white"/>
    <path d="M80.0101 69.6158C81.8348 69.6158 83.3141 68.1366 83.3141 66.3118C83.3141 64.4871 81.8348 63.0078 80.0101 63.0078C78.1853 63.0078 76.7061 64.4871 76.7061 66.3118C76.7061 68.1366 78.1853 69.6158 80.0101 69.6158Z" fill="white"/>
    <path d="M74.8015 76.5998C74.8015 73.9488 72.6525 71.7998 70.0015 71.7998C67.3506 71.7998 65.2015 73.9488 65.2015 76.5998V82.9998C65.2015 85.6508 67.3506 87.7998 70.0015 87.7998C72.6525 87.7998 74.8015 85.6508 74.8015 82.9998V76.5998Z" fill="white"/>
</svg>
