<svg viewBox="0 0 150 150" fill="currentColor" xmlns="http://www.w3.org/2000/svg">
    <circle cx="75" cy="75" r="75" fill="white"/>
    <path d="M96.0195 79.523C96.4195 71.3133 103.3 64.6518 111.58 64.4375C112.82 64.4057 114.028 64.5169 115.188 64.7551C117.676 65.2632 120.004 63.3894 120.004 60.8725V52.5278C120.004 45.9537 114.628 40.6181 108.004 40.6181H99.4115C96.8035 40.6181 94.9155 38.1886 95.5395 35.6717C95.8275 34.4966 95.9875 33.2739 96.0035 32.0114C96.0755 23.6032 89.2995 16.4495 80.8355 16.0207C71.6195 15.5602 64.0035 22.8331 64.0035 31.8765C64.0035 33.1706 64.1635 34.4251 64.4515 35.624C65.0675 38.1568 63.2435 40.6102 60.6195 40.6102H52.0035C45.3795 40.6102 40.0035 45.9457 40.0035 52.5199V60.8646C40.0035 63.3815 37.6755 65.2473 35.1875 64.7471C34.0275 64.5089 32.8195 64.3978 31.5795 64.4295C23.2995 64.6439 16.4195 71.3054 16.0195 79.5151C15.5715 88.6458 22.8995 96.1807 32.0035 96.1807C33.1155 96.1807 34.2035 96.0695 35.2515 95.8472C37.7075 95.3391 40.0035 97.2526 40.0035 99.7457V108.09C40.0035 114.664 45.3795 120 52.0035 120H108.004C114.628 120 120.004 114.664 120.004 108.09V99.7457C120.004 97.2526 117.708 95.3391 115.252 95.8472C114.204 96.0616 113.116 96.1807 112.004 96.1807C102.9 96.1807 95.5795 88.6379 96.0195 79.5151V79.523Z" fill="currentColor"/>
    <path d="M70.0835 74.9655C71.9083 74.9655 73.3875 73.4974 73.3875 71.6864C73.3875 69.8753 71.9083 68.4072 70.0835 68.4072C68.2588 68.4072 66.7795 69.8753 66.7795 71.6864C66.7795 73.4974 68.2588 74.9655 70.0835 74.9655Z" fill="white"/>
    <path d="M89.9236 74.9655C91.7484 74.9655 93.2276 73.4974 93.2276 71.6864C93.2276 69.8753 91.7484 68.4072 89.9236 68.4072C88.0989 68.4072 86.6196 69.8753 86.6196 71.6864C86.6196 73.4974 88.0989 74.9655 89.9236 74.9655Z" fill="white"/>
    <path d="M80.0035 96.1883C85.7473 96.1883 90.4035 91.5671 90.4035 85.8666C90.4035 80.1661 85.7473 75.5449 80.0035 75.5449C74.2598 75.5449 69.6035 80.1661 69.6035 85.8666C69.6035 91.5671 74.2598 96.1883 80.0035 96.1883Z" fill="white"/>
</svg>
