<svg viewBox="0 0 150 150" fill="currentColor" xmlns="http://www.w3.org/2000/svg">
    <circle cx="75" cy="75" r="75" fill="white"/>
    <path d="M103 35H94.736C92.28 35 90.392 37.2002 90.792 39.6245C90.976 40.7286 91.04 41.8807 90.976 43.0488C90.544 51.1856 83.84 57.8343 75.704 58.1863C66.552 58.5784 59 51.2736 59 42.2007C59 41.3366 59.072 40.4885 59.208 39.6645C59.6 37.2322 57.808 35 55.344 35H47C40.376 35 35 40.3765 35 47.0012V55.41C35 57.9463 37.328 59.8265 39.816 59.3224C40.976 59.0824 42.184 58.9704 43.424 59.0024C51.704 59.2184 58.584 65.9311 58.984 74.2039C59.432 83.4048 52.104 90.9976 43 90.9976C41.888 90.9976 40.8 90.8856 39.752 90.6616C37.296 90.1495 35 92.0777 35 94.59V102.999C35 109.623 40.376 115 47 115H103C109.624 115 115 109.623 115 102.999V47.0012C115 40.3765 109.624 35 103 35Z" fill="currentColor"/>
    <path d="M80.9599 87.0691L75.7039 81.9806C75.3279 81.6206 74.7359 81.6286 74.3759 81.9886L69.3679 87.0051C68.2719 88.1012 66.5039 88.1012 65.4079 87.0051C64.3119 85.909 64.3119 84.1408 65.4079 83.0447L71.3279 77.1241C73.3519 75.0999 76.6239 75.0759 78.6799 77.0681L84.8559 83.0447C85.9679 84.1168 85.9919 85.893 84.9199 87.0051C83.8479 88.1172 82.0719 88.1412 80.9599 87.0691Z" fill="white"/>
    <path d="M62.0319 65.0429C61.8719 65.4349 61.7759 65.8669 61.7759 66.3149C61.7759 68.1389 63.2559 69.6189 65.0799 69.6189C66.9039 69.6189 68.3839 68.1389 68.3839 66.3149C68.3839 65.8509 68.2879 65.4029 68.1119 65.0029C67.2399 65.2509 66.1679 65.4029 64.9999 65.4029C63.8959 65.4029 62.8719 65.2669 62.0319 65.0429Z" fill="white"/>
    <path d="M84.92 69.6187C86.7447 69.6187 88.224 68.1395 88.224 66.3147C88.224 64.49 86.7447 63.0107 84.92 63.0107C83.0952 63.0107 81.616 64.49 81.616 66.3147C81.616 68.1395 83.0952 69.6187 84.92 69.6187Z" fill="white"/>
</svg>
