<svg viewBox="0 0 150 150" fill="currentColor" xmlns="http://www.w3.org/2000/svg">
    <circle cx="75" cy="75" r="75" fill="white"/>
    <path d="M96.015 70.7938C96.415 79.0661 103.295 85.7784 111.576 85.9944C112.816 86.0264 114.024 85.9144 115.184 85.6744C117.672 85.1624 120 87.0505 120 89.5866V97.9949C120 104.619 114.624 109.995 107.999 109.995H99.5911C97.055 109.995 95.1669 112.324 95.679 114.812C95.919 115.972 96.031 117.18 95.999 118.42C95.783 126.7 89.0707 133.58 80.7983 133.98C71.5979 134.429 64.0056 127.1 64.0056 117.996C64.0056 116.884 64.1176 115.796 64.3416 114.748C64.8536 112.292 62.9255 109.995 60.4134 109.995H52.0051C45.3808 109.995 40.0045 104.619 40.0045 97.9949V89.5866C40.0045 87.0505 37.6764 85.1704 35.1883 85.6744C34.0283 85.9144 32.8202 86.0264 31.5802 85.9944C23.2998 85.7784 16.4195 79.0661 16.0195 70.7938C15.5715 61.5934 22.8998 54.001 32.0042 54.001C33.1162 54.001 34.2043 54.1131 35.2523 54.3371C37.7084 54.8491 40.0045 52.921 40.0045 50.4089V42.0005C40.0045 35.3762 45.3808 30 52.0051 30H60.4134C62.9495 30 64.8376 32.3281 64.3256 34.8162C64.0856 35.9762 63.9736 37.1843 64.0056 38.4244C64.2216 46.7047 70.9339 53.585 79.2062 53.985C88.4066 54.4331 95.999 47.1047 95.999 38.0003C95.999 36.8883 95.8869 35.8003 95.6629 34.7522C95.1509 32.2961 97.079 30 99.5911 30H107.999C114.624 30 120 35.3762 120 42.0005V50.4089C120 52.921 117.704 54.8491 115.248 54.3371C114.2 54.1211 113.112 54.001 112 54.001C102.895 54.001 95.5749 61.6014 96.015 70.7938Z" fill="#238AFF"/>
    <path d="M78.3982 69.3135H81.2464C86.1186 69.3135 90.6308 71.5056 93.6389 75.1937C94.6869 76.4818 94.2789 78.4179 92.8148 79.1939C91.7108 79.7779 90.3428 79.5219 89.5587 78.5539C87.5506 76.0738 84.5185 74.6017 81.2544 74.6017H78.4062C75.1421 74.6017 72.11 76.0738 70.1019 78.5539C69.3178 79.5219 67.9418 79.7779 66.8457 79.1939C65.3737 78.4179 64.9737 76.4818 66.0217 75.1937C69.0218 71.5056 73.542 69.3135 78.4142 69.3135H78.3982Z" fill="white"/>
    <path d="M66.5977 60.7451C66.5977 62.5692 68.0777 64.0493 69.9098 64.0493C71.7419 64.0493 73.2139 62.5692 73.2139 60.7451C73.2139 60.3451 73.1339 59.9611 72.9979 59.6011H66.8137C66.6777 59.9611 66.5977 60.3451 66.5977 60.7451Z" fill="white"/>
    <path d="M86.4385 60.7451C86.4385 62.5692 87.9185 64.0493 89.7426 64.0493C91.5667 64.0493 93.0468 62.5692 93.0468 60.7451C93.0468 60.3451 92.9668 59.9611 92.8308 59.6011H86.6545C86.5185 59.9611 86.4385 60.3451 86.4385 60.7451Z" fill="white"/>
</svg>
