<svg viewBox="0 0 150 150" fill="currentColor" xmlns="http://www.w3.org/2000/svg">
    <circle cx="75" cy="75" r="75" fill="white"/>
    <path d="M90.216 74.1719C90.648 65.7071 97.856 58.9384 106.328 59.0024C107.6 59.0104 108.832 59.1704 110.016 59.4664C112.552 60.0905 115 58.2023 115 55.5941V47.0012C115 40.3765 109.624 35 103 35H94.736C92.28 35 90.392 37.2002 90.792 39.6245C90.976 40.7286 91.04 41.8807 90.976 43.0488C90.544 51.1856 83.84 57.8343 75.704 58.1863C66.552 58.5784 59 51.2736 59 42.2007C59 41.3366 59.072 40.4885 59.208 39.6645C59.6 37.2322 57.808 35 55.344 35H47C40.376 35 35 40.3765 35 47.0012V55.41C35 57.9463 37.328 59.8265 39.816 59.3224C40.976 59.0824 42.184 58.9704 43.424 59.0024C51.704 59.2184 58.584 65.9311 58.984 74.2039C59.432 83.4048 52.104 90.9976 43 90.9976C41.888 90.9976 40.8 90.8856 39.752 90.6616C37.296 90.1495 35 92.0777 35 94.59V102.999C35 109.623 40.376 115 47 115H55.408C57.944 115 59.832 112.672 59.32 110.184C59.08 109.023 58.968 107.815 59 106.575C59.216 98.2943 65.928 91.4136 74.2 91.0136C83.4 90.5656 90.992 97.8943 90.992 106.999C90.992 108.111 90.88 109.199 90.656 110.248C90.144 112.704 92.072 115 94.584 115H102.992C109.616 115 114.992 109.623 114.992 102.999V94.3819C114.992 91.7577 112.512 89.9335 109.968 90.5496C108.76 90.8456 107.496 90.9976 106.192 90.9976C97.08 90.9976 89.744 83.3808 90.216 74.1639V74.1719Z" fill="currentColor"/>
    <path d="M68.384 66.0828C68.384 64.2588 66.904 62.7788 65.08 62.7788C63.256 62.7788 61.776 64.2588 61.776 66.0828C61.776 66.6028 61.904 67.0828 62.12 67.5228H68.048C68.264 67.0828 68.392 66.6028 68.392 66.0828H68.384Z" fill="white"/>
    <path d="M88.2159 66.0828C88.2159 64.2588 86.7359 62.7788 84.9119 62.7788C83.0879 62.7788 81.6079 64.2588 81.6079 66.0828C81.6079 66.6028 81.7359 67.0828 81.9519 67.5228H87.8799C88.0959 67.0828 88.2239 66.6028 88.2239 66.0828H88.2159Z" fill="white"/>
    <path d="M87.984 74.964C86.88 74.3799 85.512 74.6359 84.728 75.604C82.72 78.0763 79.688 79.5564 76.424 79.5564H73.576C70.312 79.5564 67.28 78.0843 65.272 75.604C64.488 74.6359 63.112 74.3799 62.016 74.964C60.544 75.74 60.144 77.6762 61.192 78.9644C64.192 82.6527 68.712 84.8449 73.584 84.8449H76.432C81.304 84.8449 85.816 82.6527 88.824 78.9644C89.872 77.6762 89.464 75.74 88 74.964H87.984Z" fill="white"/>
</svg>
