<svg viewBox="0 0 150 150" fill="currentColor" xmlns="http://www.w3.org/2000/svg">
    <circle cx="75" cy="75" r="75" fill="white"/>
    <path d="M123.428 59.0104C122.188 58.9784 120.979 59.0904 119.819 59.3304C117.331 59.8425 115.004 57.9543 115.004 55.418V47.0092C115.004 40.3765 109.628 35 103.004 35H94.7395C92.2835 35 90.3955 37.2002 90.7955 39.6245C90.9795 40.7286 91.0435 41.8807 90.9795 43.0488C90.5475 51.1856 83.8435 57.8343 75.7075 58.1863C66.5555 58.5784 59.0035 51.2736 59.0035 42.2007C59.0035 41.3366 59.0755 40.4885 59.2115 39.6645C59.6035 37.2322 57.8115 35 55.3475 35H47.0035C40.3795 35 35.0035 40.3765 35.0035 47.0012V55.41C35.0035 57.9463 32.6755 59.8265 30.1875 59.3224C29.0275 59.0824 27.8195 58.9704 26.5795 59.0024C18.2995 59.2184 11.4195 65.9311 11.0195 74.2039C10.5715 83.4048 17.8995 90.9976 27.0035 90.9976C28.1155 90.9976 29.2035 90.8856 30.2515 90.6616C32.7075 90.1495 35.0035 92.0777 35.0035 94.59V102.999C35.0035 109.623 40.3795 115 47.0035 115H55.4115C57.9475 115 59.8355 112.672 59.3235 110.184C59.0835 109.023 58.9715 107.815 59.0035 106.575C59.2195 98.2943 65.9315 91.4136 74.2035 91.0136C83.4035 90.5656 90.9955 97.8943 90.9955 106.999C90.9955 108.111 90.8835 109.199 90.6595 110.248C90.1475 112.704 92.0755 115 94.5875 115H102.995C109.619 115 114.995 109.623 114.995 102.999V94.59C114.995 92.0777 117.291 90.1495 119.747 90.6616C120.796 90.8776 121.883 90.9976 122.995 90.9976C132.099 90.9976 139.42 83.3968 138.98 74.2039C138.58 65.9311 131.699 59.2184 123.419 59.0024L123.428 59.0104Z" fill="currentColor"/>
    <path d="M65.1795 69.6187C67.0042 69.6187 68.4835 68.1395 68.4835 66.3147C68.4835 64.49 67.0042 63.0107 65.1795 63.0107C63.3547 63.0107 61.8755 64.49 61.8755 66.3147C61.8755 68.1395 63.3547 69.6187 65.1795 69.6187Z" fill="white"/>
    <path d="M85.0115 69.6187C86.8363 69.6187 88.3155 68.1395 88.3155 66.3147C88.3155 64.49 86.8363 63.0107 85.0115 63.0107C83.1868 63.0107 81.7075 64.49 81.7075 66.3147C81.7075 68.1395 83.1868 69.6187 85.0115 69.6187Z" fill="white"/>
    <path d="M82.2115 79.0044H67.9794C66.433 79.0044 65.1794 80.258 65.1794 81.8044C65.1794 83.3508 66.433 84.6044 67.9794 84.6044H82.2115C83.7578 84.6044 85.0114 83.3508 85.0114 81.8044C85.0114 80.258 83.7578 79.0044 82.2115 79.0044Z" fill="white"/>
</svg>
