<svg viewBox="0 0 150 150" fill="currentColor" xmlns="http://www.w3.org/2000/svg">
    <circle cx="75" cy="75" r="75" fill="white"/>
    <path d="M123.42 59.0039C122.18 58.9719 120.972 59.0839 119.812 59.3239C117.324 59.8359 114.996 57.9479 114.996 55.4118V47.0038C114.996 40.3797 109.62 35.0037 102.996 35.0037H94.5881C92.0521 35.0037 90.1641 32.6757 90.6761 30.1877C90.9161 29.0276 91.0281 27.8196 90.9961 26.5796C90.7801 18.2996 84.0681 11.4195 75.796 11.0195C66.5959 10.5715 59.0039 17.8996 59.0039 27.0036C59.0039 28.1156 59.1159 29.2036 59.3399 30.2517C59.8519 32.7077 57.9239 35.0037 55.4118 35.0037H47.0038C40.3797 35.0037 35.0037 40.3797 35.0037 47.0038V55.4118C35.0037 57.9479 32.6757 59.8279 30.1876 59.3239C29.0276 59.0839 27.8196 58.9719 26.5796 59.0039C18.2996 59.2199 11.4195 65.9319 11.0195 74.204C10.5715 83.4041 17.8996 90.9961 27.0036 90.9961C28.1156 90.9961 29.2037 90.8841 30.2517 90.6601C32.7077 90.1481 35.0037 92.0761 35.0037 94.5881V102.996C35.0037 109.62 40.3797 114.996 47.0038 114.996H55.4118C57.9479 114.996 59.8359 117.324 59.3239 119.812C59.0839 120.972 58.9719 122.18 59.0039 123.42C59.2199 131.7 65.9319 138.58 74.204 138.98C83.4041 139.428 90.9961 132.1 90.9961 122.996C90.9961 121.884 90.8841 120.796 90.6601 119.748C90.1481 117.292 92.0761 114.996 94.5881 114.996H102.996C109.62 114.996 114.996 109.62 114.996 102.996V94.5881C114.996 92.0761 117.292 90.1481 119.748 90.6601C120.796 90.8761 121.884 90.9961 122.996 90.9961C132.1 90.9961 139.421 83.3961 138.98 74.204C138.58 65.9319 131.7 59.2199 123.42 59.0039Z" fill="currentColor"/>
    <path d="M65.692 74.9961H84.3002C86.6682 74.9961 88.5962 76.9241 88.5962 79.2921C88.5962 86.6362 82.6362 92.5962 75.2921 92.5962H74.7001C67.356 92.5962 61.396 86.6362 61.396 79.2921C61.396 76.9241 63.324 74.9961 65.692 74.9961Z" fill="white"/>
    <path d="M68.3878 66.3079C68.3878 64.4839 66.9078 63.0039 65.0838 63.0039C63.2598 63.0039 61.7798 64.4839 61.7798 66.3079C61.7798 66.8439 61.9238 67.3479 62.1478 67.7959H68.0198C68.2438 67.3479 68.3878 66.8439 68.3878 66.3079Z" fill="white"/>
    <path d="M88.2201 66.3079C88.2201 64.4839 86.7401 63.0039 84.9161 63.0039C83.0921 63.0039 81.6121 64.4839 81.6121 66.3079C81.6121 66.8439 81.7561 67.3479 81.9801 67.7959H87.8521C88.0761 67.3479 88.2201 66.8439 88.2201 66.3079Z" fill="white"/>
</svg>
