<svg viewBox="0 0 150 150" fill="currentColor" xmlns="http://www.w3.org/2000/svg">
    <circle cx="75" cy="75" r="75" fill="white"/>
    <path d="M47 40.6181H55.592C58.2 40.6181 60.088 38.1886 59.464 35.6717C59.176 34.4966 59.016 33.2739 59 32.0114C58.928 23.6032 65.704 16.4495 74.168 16.0207C83.384 15.5602 91 22.8331 91 31.8765C91 33.1706 90.84 34.4251 90.552 35.624C89.936 38.1568 91.76 40.6102 94.384 40.6102H103C109.624 40.6102 115 45.9457 115 52.5199V60.8646C115 63.3815 112.672 65.2473 110.184 64.7471C109.024 64.5089 107.816 64.3978 106.576 64.4295C98.296 64.6439 91.416 71.3054 91.016 79.5151C90.568 88.6458 97.896 96.1807 107 96.1807C108.112 96.1807 109.2 96.0695 110.248 95.8472C112.704 95.3391 115 97.2526 115 99.7456V108.09C115 114.664 109.624 120 103 120H47C40.376 120 35 114.664 35 108.09V52.5119C35 45.9378 40.376 40.6023 47 40.6023V40.6181Z" fill="currentColor"/>
    <path d="M72.352 77.4984L66.056 85.0491C64.2 87.2722 65.8 90.6387 68.704 90.6387H81.296C84.208 90.6387 85.8 87.2802 83.944 85.0491L77.648 77.4984C76.272 75.8469 73.728 75.8469 72.352 77.4984Z" fill="white"/>
    <path d="M67.7319 70.7228L63.031 69.4526C62.3404 69.266 61.6286 69.6687 61.4411 70.352C61.2537 71.0353 61.6616 71.7405 62.3522 71.9271L67.0531 73.1973C67.7437 73.3839 68.4555 72.9813 68.643 72.298C68.8304 71.6147 68.4225 70.9095 67.7319 70.7228Z" fill="white"/>
    <path d="M87.0449 69.4578L82.344 70.728C81.6534 70.9146 81.2455 71.6199 81.4329 72.3032C81.6204 72.9865 82.3322 73.3891 83.0228 73.2025L87.7237 71.9323C88.4143 71.7457 88.8222 71.0405 88.6348 70.3572C88.4473 69.6739 87.7355 69.2712 87.0449 69.4578Z" fill="white"/>
</svg>
