<svg viewBox="0 0 150 150" fill="currentColor" xmlns="http://www.w3.org/2000/svg">
    <circle cx="75" cy="75" r="75" fill="white"/>
    <path d="M123.428 64.4375C122.188 64.4057 120.98 64.5169 119.82 64.7551C117.332 65.2632 115.004 63.3894 115.004 60.8725V52.5278C115.004 45.9537 109.628 40.6181 103.004 40.6181H94.4115C91.8035 40.6181 89.9155 38.1886 90.5395 35.6717C90.8275 34.4966 90.9875 33.2739 91.0035 32.0114C91.0755 23.6032 84.2995 16.4495 75.8355 16.0207C66.6195 15.5602 59.0035 22.8331 59.0035 31.8765C59.0035 33.1706 59.1635 34.4251 59.4515 35.624C60.0675 38.1568 58.2435 40.6102 55.6195 40.6102H47.0035C40.3795 40.6102 35.0035 45.9457 35.0035 52.5199V60.8646C35.0035 63.3815 32.6755 65.2473 30.1875 64.7471C29.0275 64.5089 27.8195 64.3978 26.5795 64.4295C18.2995 64.6439 11.4195 71.3054 11.0195 79.5151C10.5715 88.6458 17.8995 96.1807 27.0035 96.1807C28.1155 96.1807 29.2035 96.0695 30.2515 95.8472C32.7075 95.3391 35.0035 97.2525 35.0035 99.7456V108.09C35.0035 114.664 40.3795 120 47.0035 120H55.4115C57.9475 120 59.8355 117.69 59.3235 115.22C59.0835 114.069 58.9715 112.87 59.0035 111.639C59.2195 103.422 65.9315 96.5935 74.2035 96.1965C83.4035 95.7519 90.9955 103.025 90.9955 112.06C90.9955 113.164 90.8835 114.244 90.6595 115.284C90.1475 117.721 92.0755 120 94.5875 120H102.996C109.62 120 114.996 114.664 114.996 108.09V99.7456C114.996 97.2525 117.291 95.3391 119.747 95.8472C120.796 96.0616 121.884 96.1807 122.996 96.1807C132.1 96.1807 139.42 88.6379 138.98 79.5151C138.58 71.3054 131.7 64.6439 123.42 64.4295L123.428 64.4375Z" fill="currentColor"/>
    <path d="M77.0036 89.0429C79.8755 89.0429 82.2036 86.7323 82.2036 83.882C82.2036 81.0318 79.8755 78.7212 77.0036 78.7212H71.4036C68.5317 78.7212 66.2036 81.0318 66.2036 83.882C66.2036 86.7323 68.5317 89.0429 71.4036 89.0429H77.0036Z" fill="white"/>
    <path d="M60.9794 70.8928C60.9794 72.7031 62.4594 74.172 64.2834 74.172C66.1074 74.172 67.5874 72.7031 67.5874 70.8928C67.5874 69.3446 66.5074 68.0583 65.0514 67.709L61.1234 69.9559C61.0354 70.2497 60.9714 70.5594 60.9714 70.8849L60.9794 70.8928Z" fill="white"/>
    <path d="M80.8115 70.8927C80.8115 72.703 82.2915 74.1718 84.1155 74.1718C85.9395 74.1718 87.4195 72.703 87.4195 70.8927C87.4195 70.5672 87.3555 70.2575 87.2675 69.9638L83.3395 67.7168C81.8915 68.0661 80.8035 69.3524 80.8035 70.9006L80.8115 70.8927Z" fill="white"/>
</svg>
