<svg viewBox="0 0 150 150" fill="currentColor" xmlns="http://www.w3.org/2000/svg">
    <circle cx="75" cy="75" r="75" fill="white"/>
    <path d="M106.568 64.0056C107.808 63.9736 109.016 64.0856 110.176 64.3256C112.664 64.8376 114.992 62.9495 114.992 60.4134V52.0051C114.992 45.3808 109.616 40.0045 102.992 40.0045H94.584C92.048 40.0045 90.16 37.6764 90.672 35.1883C90.912 34.0283 91.024 32.8202 90.992 31.5802C90.776 23.2998 84.064 16.4195 75.792 16.0195C66.592 15.5715 59 22.8998 59 32.0042C59 33.1162 59.112 34.2043 59.336 35.2523C59.848 37.7084 57.92 40.0045 55.408 40.0045H47C40.376 40.0045 35 45.3808 35 52.0051V60.4134C35 62.9495 37.328 64.8296 39.816 64.3256C40.976 64.0856 42.184 63.9736 43.424 64.0056C51.704 64.2216 58.584 70.9339 58.984 79.2062C59.432 88.4066 52.104 95.999 43 95.999C41.888 95.999 40.8 95.8869 39.752 95.6629C37.296 95.1509 35 97.079 35 99.5911V107.999C35 114.624 40.376 120 47 120H103C109.624 120 115 114.624 115 107.999V99.5911C115 97.079 112.704 95.1509 110.248 95.6629C109.2 95.879 108.112 95.999 107 95.999C97.896 95.999 90.576 88.3986 91.016 79.2062C91.416 70.9339 98.296 64.2216 106.576 64.0056H106.568Z" fill="currentColor"/>
    <path d="M69.3201 82.1741L74.5761 87.2621C74.9521 87.6221 75.5441 87.6141 75.9041 87.2541L80.9121 82.2381C82.0081 81.1421 83.7761 81.1421 84.8721 82.2381C85.9681 83.3341 85.9681 85.102 84.8721 86.198L78.9521 92.118C76.9281 94.142 73.6561 94.166 71.6001 92.174L65.4241 86.198C64.3121 85.126 64.2881 83.3501 65.3601 82.2381C66.4321 81.1261 68.2081 81.1021 69.3201 82.1741Z" fill="white"/>
    <path d="M87.6496 70.8538L82.9487 69.5739C82.2581 69.3858 81.5463 69.7915 81.3589 70.48C81.1714 71.1685 81.5793 71.8791 82.2699 72.0671L86.9708 73.347C87.6614 73.5351 88.3732 73.1294 88.5607 72.4409C88.7481 71.7524 88.3402 71.0418 87.6496 70.8538Z" fill="white"/>
    <path d="M66.9565 69.6038L62.2556 70.8837C61.565 71.0717 61.1571 71.7823 61.3445 72.4708C61.532 73.1592 62.2438 73.565 62.9344 73.3769L67.6353 72.097C68.3259 71.909 68.7338 71.1984 68.5463 70.5099C68.3589 69.8214 67.6471 69.4157 66.9565 69.6038Z" fill="white"/>
</svg>
