<svg viewBox="0 0 150 150" fill="currentColor" xmlns="http://www.w3.org/2000/svg">
    <circle cx="75" cy="75" r="75" fill="white"/>
    <path d="M26.5781 90.9976C27.818 91.0296 29.026 90.9176 30.1859 90.6776C32.6738 90.1655 35.0017 92.0537 35.0017 94.59V102.999C35.0017 109.623 40.3774 115 47.0011 115H55.2646C57.7205 115 59.6084 112.8 59.2085 110.376C59.0245 109.271 58.9605 108.119 59.0245 106.951C59.4564 98.8144 66.1601 92.1657 74.2957 91.8137C83.4473 91.4216 90.9989 98.7264 90.9989 107.799C90.9989 108.663 90.9269 109.511 90.7909 110.336C90.3989 112.768 92.1908 115 94.6547 115H102.998C109.622 115 114.998 109.623 114.998 102.999V94.59C114.998 92.0537 117.326 90.1735 119.813 90.6776C120.973 90.9176 122.181 91.0296 123.421 90.9976C131.701 90.7816 138.581 84.0689 138.98 75.7961C139.428 66.5952 132.101 59.0024 122.997 59.0024C121.885 59.0024 120.797 59.1144 119.749 59.3384C117.294 59.8505 114.998 57.9223 114.998 55.41V47.0012C114.998 40.3765 109.622 35 102.998 35H47.0011C40.3774 35 35.0017 40.3765 35.0017 47.0012V55.41C35.0017 57.9223 32.7058 59.8505 30.2499 59.3384C29.202 59.1224 28.114 59.0024 27.0021 59.0024C17.8985 59.0024 10.5789 66.6032 11.0188 75.7961C11.4188 84.0689 18.2985 90.7816 26.5781 90.9976Z" fill="currentColor"/>
    <path d="M84.6792 69.6188C86.504 69.6188 87.9833 68.1395 87.9833 66.3147C87.9833 64.49 86.504 63.0107 84.6792 63.0107C82.8545 63.0107 81.3752 64.49 81.3752 66.3147C81.3752 68.1395 82.8545 69.6188 84.6792 69.6188Z" fill="white"/>
    <path d="M77.7837 80.4927L75.8637 78.5725C75.2558 77.9644 74.2718 77.9644 73.6638 78.5725L71.7439 80.4927C69.3281 82.9089 65.4083 82.9089 62.9924 80.4927L61.7285 79.2285C60.6325 78.1324 60.6325 76.3642 61.7285 75.2681C62.8244 74.172 64.5923 74.172 65.6882 75.2681L66.2642 75.8442C66.8722 76.4523 67.8561 76.4523 68.4641 75.8442L70.384 73.924C72.7999 71.5078 76.7197 71.5078 79.1356 73.924L81.0555 75.8442C81.6635 76.4523 82.6474 76.4523 83.2554 75.8442L83.8314 75.2681C84.9273 74.172 86.6952 74.172 87.7911 75.2681C88.8871 76.3642 88.8871 78.1324 87.7911 79.2285L86.5272 80.4927C84.1113 82.9089 80.1915 82.9089 77.7757 80.4927H77.7837Z" fill="white"/>
    <path d="M67.2113 65.4164L62.5105 64.1364C61.8199 63.9483 61.1081 64.354 60.9207 65.0425C60.7332 65.731 61.1412 66.4416 61.8318 66.6297L66.5326 67.9097C67.2232 68.0978 67.935 67.6921 68.1224 67.0036C68.3098 66.3151 67.9019 65.6045 67.2113 65.4164Z" fill="white"/>
</svg>
