<svg viewBox="0 0 150 150" fill="currentColor" xmlns="http://www.w3.org/2000/svg">
    <circle cx="75" cy="75" r="75" fill="white"/>
    <path d="M91.016 74.2039C91.416 65.9311 98.296 59.2184 106.576 59.0024C107.816 58.9704 109.024 59.0824 110.184 59.3224C112.672 59.8345 115 57.9463 115 55.41V47.0012C115 40.3766 109.624 35 103 35H94.592C92.056 35 90.168 37.3282 90.68 39.8165C90.92 40.9766 91.032 42.1847 91 43.4249C90.784 51.7057 84.072 58.5864 75.8 58.9864C66.6 59.4344 59.008 52.1057 59.008 43.0008C59.008 41.8887 59.12 40.8006 59.344 39.7525C59.856 37.2963 57.928 35 55.416 35H47.008C40.376 34.992 35 40.3685 35 46.9932V55.4021C35 57.9383 37.328 59.8265 39.816 59.3144C40.976 59.0744 42.184 58.9624 43.424 58.9944C51.704 59.2104 58.584 65.9231 58.984 74.1959C59.432 83.3968 52.104 90.9896 43 90.9896C41.888 90.9896 40.8 90.8776 39.752 90.6536C37.296 90.1495 35 92.0777 35 94.59V102.999C35 109.623 40.376 115 47 115H103C109.624 115 115 109.623 115 102.999V94.59C115 92.0777 112.704 90.1495 110.248 90.6616C109.2 90.8776 108.112 90.9976 107 90.9976C97.896 90.9976 90.576 83.3969 91.016 74.2039Z" fill="currentColor"/>
    <path d="M68.3919 66.307C68.3919 66.107 68.3679 65.923 68.3359 65.731L63.9679 63.2109C62.6959 63.6749 61.7839 64.875 61.7839 66.307C61.7839 68.131 63.2639 69.6109 65.0879 69.6109C66.9119 69.6109 68.3919 68.131 68.3919 66.307Z" fill="white"/>
    <path d="M86.04 63.2109L81.672 65.731C81.64 65.915 81.616 66.107 81.616 66.307C81.616 68.131 83.096 69.6109 84.92 69.6109C86.744 69.6109 88.224 68.131 88.224 66.307C88.224 64.875 87.312 63.6669 86.04 63.2109Z" fill="white"/>
    <path d="M71.6095 72.7201L67.0843 77.2459C65.2098 79.1205 65.2098 82.1598 67.0843 84.0344L71.6095 88.5601C73.4839 90.4347 76.523 90.4347 78.3974 88.5601L82.9227 84.0344C84.7971 82.1598 84.7971 79.1205 82.9227 77.2459L78.3974 72.7201C76.523 70.8455 73.4839 70.8455 71.6095 72.7201Z" fill="white"/>
</svg>
