<svg xmlns="http://www.w3.org/2000/svg" width="164" height="259" viewBox="0 0 164 259" fill="none">
    <path d="M21.4468 125.997L21.4465 125.997C10.5751 125.713 1.55004 116.909 1.02473 106.043L1.0247 106.043C0.447337 93.9794 10.0541 84.003 22.0026 84.003C23.4645 84.003 24.8921 84.1608 26.2643 84.4436L26.2665 84.4441C28.6932 84.9501 31.0021 83.0413 31.0021 80.5125V70.0015C31.0021 61.1685 38.1693 54 47.0013 54H116.998C125.83 54 132.997 61.1685 132.997 70.0015V80.5125C132.997 83.0406 135.305 84.9491 137.731 84.4445C139.112 84.1495 140.541 84.003 141.997 84.003C153.944 84.003 163.562 93.9683 162.974 106.043C162.974 106.044 162.974 106.044 162.974 106.044L161.976 105.995C161.476 116.336 152.876 124.727 142.527 124.997L21.4468 125.997ZM21.4468 125.997C23.0739 126.039 24.6605 125.892 26.185 125.576L21.4468 125.997Z" fill="#238AFF" stroke="white" stroke-width="2"/>
    <path d="M94.0988 98.2737C96.3797 98.2737 98.2288 96.4246 98.2288 94.1437C98.2288 91.8627 96.3797 90.0137 94.0988 90.0137C91.8178 90.0137 89.9688 91.8627 89.9688 94.1437C89.9688 96.4246 91.8178 98.2737 94.0988 98.2737Z" fill="white"/>
    <path d="M85.4793 111.866L83.0794 109.465C82.3194 108.705 81.0895 108.705 80.3295 109.465L77.9296 111.866C74.9098 114.886 70.01 114.886 66.9902 111.866L65.4103 110.286C64.0403 108.915 64.0403 106.705 65.4103 105.335C66.7802 103.965 68.9901 103.965 70.36 105.335L71.08 106.055C71.8399 106.815 73.0699 106.815 73.8298 106.055L76.2297 103.655C79.2496 100.635 84.1493 100.635 87.1692 103.655L89.5691 106.055C90.329 106.815 91.559 106.815 92.3189 106.055L93.0389 105.335C94.4088 103.965 96.6187 103.965 97.9886 105.335C99.3586 106.705 99.3586 108.915 97.9886 110.286L96.4087 111.866C93.3889 114.886 88.4891 114.886 85.4693 111.866H85.4793Z" fill="white"/>
    <path d="M72.2638 93.0208L66.3878 91.4207C65.5245 91.1857 64.6348 91.6928 64.4005 92.5534C64.1662 93.414 64.6761 94.3023 65.5394 94.5373L71.4155 96.1374C72.2787 96.3724 73.1685 95.8653 73.4027 95.0047C73.637 94.1441 73.1271 93.2558 72.2638 93.0208Z" fill="white"/>
    <path d="M121.496 188.006C122.965 187.969 124.395 188.102 125.767 188.386L125.768 188.386C129.495 189.153 132.99 186.324 132.99 182.517V172.006C132.99 163.174 125.822 156.006 116.99 156.006H106.48C103.948 156.006 102.057 153.682 102.569 151.188C102.885 149.663 103.032 148.077 102.99 146.449L102.99 146.449C102.706 135.577 93.9028 126.551 83.0386 126.026L121.496 188.006ZM121.496 188.006L121.496 188.007C111.668 188.263 103.493 196.24 103.019 206.056C102.497 216.974 111.189 225.999 122 225.999C123.317 225.999 124.609 225.857 125.856 225.6M121.496 188.006L83.0383 126.026C70.9641 125.438 61 135.057 61 147.005C61 148.461 61.1465 149.891 61.4415 151.272C61.9459 153.698 60.0375 156.006 57.51 156.006H47C38.1677 156.006 31 163.174 31 172.006V182.517C31 186.328 34.4977 189.141 38.2186 188.387L38.2226 188.386C39.598 188.102 41.0314 187.969 42.5042 188.007M125.856 225.6C125.857 225.6 125.857 225.599 125.858 225.599L126.06 226.579L125.856 225.6C125.856 225.6 125.856 225.6 125.856 225.6ZM125.856 225.6C129.569 224.826 133 227.737 133 231.489V241.999C133 250.832 125.832 258 117 258H47C38.1677 258 31 250.832 31 241.999V231.489C31 227.737 34.4311 224.826 38.1441 225.6L38.149 225.601C39.3873 225.865 40.6771 225.999 42 225.999C52.8122 225.999 61.5132 216.983 60.9812 206.056L60.9812 206.056C60.5065 196.24 52.3322 188.263 42.5042 188.007M42.5042 188.007L42.53 187.007L42.5039 188.007C42.504 188.007 42.5041 188.007 42.5042 188.007Z" fill="#238AFF" stroke="white" stroke-width="2"/>
    <path d="M74.8995 209.718L81.4695 216.078C81.9395 216.528 82.6795 216.518 83.1295 216.068L89.3895 209.798C90.7595 208.428 92.9695 208.428 94.3395 209.798C95.7095 211.168 95.7095 213.378 94.3395 214.748L86.9395 222.148C84.4095 224.678 80.3195 224.708 77.7495 222.218L70.0295 214.748C68.6395 213.408 68.6095 211.188 69.9495 209.798C71.2895 208.408 73.5095 208.378 74.8995 209.718Z" fill="white"/>
    <path d="M97.8108 195.567L91.9347 193.968C91.0714 193.733 90.1816 194.24 89.9473 195.1C89.713 195.961 90.2229 196.849 91.0862 197.084L96.9623 198.684C97.8256 198.919 98.7153 198.412 98.9496 197.551C99.1839 196.691 98.674 195.802 97.8108 195.567Z" fill="white"/>
    <path d="M71.9465 194.005L66.0704 195.605C65.2071 195.84 64.6973 196.728 64.9316 197.589C65.1659 198.449 66.0556 198.956 66.9189 198.721L72.795 197.121C73.6583 196.886 74.1681 195.998 73.9338 195.138C73.6995 194.277 72.8098 193.77 71.9465 194.005Z" fill="white"/>
    <path d="M82.1426 25L82.1426 5" stroke="#238AFF" stroke-width="10" stroke-linecap="round"/>
    <path d="M59.1421 31.2134L45 17.0712" stroke="#238AFF" stroke-width="10" stroke-linecap="round"/>
    <path d="M105.143 31.2134L119.285 17.0712" stroke="#238AFF" stroke-width="10" stroke-linecap="round"/>
</svg>