<svg id="_레이어_1" data-name="레이어 1" xmlns="http://www.w3.org/2000/svg" viewBox="0 0 160 252">
    <g>
        <path d="M21.51,123.59c1.5.04,2.97-.1,4.38-.38,3.02-.62,5.84,1.67,5.84,4.74v10.2c0,8.04,6.52,14.56,14.56,14.56h10.03c2.98,0,5.27-2.67,4.79-5.61-.22-1.34-.3-2.73-.23-4.16.52-9.87,8.65-17.94,18.53-18.36,11.11-.47,20.26,8.39,20.26,19.39,0,1.05-.09,2.08-.25,3.08-.48,2.95,1.7,5.66,4.69,5.66h10.12c8.04,0,14.56-6.52,14.56-14.56v-10.2c0-3.08,2.82-5.36,5.84-4.74,1.41.29,2.87.42,4.38.38,10.04-.26,18.39-8.4,18.88-18.44.54-11.16-8.35-20.37-19.39-20.37-1.35,0-2.67.14-3.94.41-2.98.62-5.76-1.72-5.76-4.76v-10.2c0-8.04-6.52-14.56-14.56-14.56H46.28c-8.04,0-14.56,6.52-14.56,14.56v10.2c0,3.05-2.78,5.39-5.76,4.76-1.27-.27-2.59-.41-3.94-.41-11.04,0-19.93,9.22-19.39,20.37.49,10.04,8.83,18.18,18.88,18.44Z" fill="#4482fc"/>
        <circle cx="91.99" cy="93.65" r="4.01" fill="#fff"/>
        <path d="M83.63,110.84l-2.33-2.33c-.74-.74-1.93-.74-2.67,0l-2.33,2.33c-2.93,2.93-7.68,2.93-10.62,0l-1.53-1.53c-1.33-1.33-1.33-3.48,0-4.8h0c1.33-1.33,3.48-1.33,4.8,0l.7.7c.74.74,1.93.74,2.67,0l2.33-2.33c2.93-2.93,7.68-2.93,10.62,0l2.33,2.33c.74.74,1.93.74,2.67,0l.7-.7c1.33-1.33,3.48-1.33,4.8,0h0c1.33,1.33,1.33,3.48,0,4.8l-1.53,1.53c-2.93,2.93-7.68,2.93-10.62,0Z" fill="#fff"/>
        <rect x="62.99" y="91.74" width="9.05" height="3.14" rx="1.57" ry="1.57" transform="translate(26.89 -14.46) rotate(15.23)" fill="#fff"/>
    </g>
    <g>
        <g>
            <g>
                <path d="M44.66,253.11c-7.85,0-14.24-6.39-14.24-14.24v-10.69c0-2.25,1.8-4.08,4-4.08.27,0,.54.03.81.08,1.42.3,2.88.45,4.34.45,5.9,0,11.39-2.35,15.46-6.63,4.07-4.27,6.15-9.88,5.87-15.79-.54-11.09-9.66-20-20.77-20.29-.19,0-.37,0-.56,0-1.43,0-2.86.14-4.25.43-.28.06-.56.09-.84.09-2.24,0-4.06-1.82-4.06-4.06v-10.69c0-7.85,6.39-14.24,14.24-14.24h10.69c1.86,0,3.59-.83,4.76-2.27,1.15-1.41,1.59-3.23,1.22-5-.27-1.29-.4-2.61-.4-3.92,0-10.65,8.67-19.32,19.32-19.32.32,0,.64,0,.96.02,10.03.49,18.09,8.74,18.35,18.79.04,1.46-.09,2.93-.38,4.36-.37,1.81.08,3.67,1.25,5.1,1.16,1.42,2.88,2.24,4.72,2.24h10.69c7.85,0,14.24,6.39,14.24,14.24v10.69c0,2.24-1.82,4.06-4.06,4.06-.28,0-.56-.03-.84-.08-1.39-.29-2.83-.43-4.25-.43-.19,0-.37,0-.56,0-11.11.29-20.23,9.2-20.77,20.29-.29,5.91,1.8,11.52,5.87,15.79,4.07,4.27,9.56,6.63,15.46,6.63,1.46,0,2.92-.15,4.34-.45.27-.06.54-.08.81-.08,2.21,0,4,1.83,4,4.08v10.69c0,7.85-6.39,14.24-14.24,14.24H44.66Z" fill="#4482fc"/>
                <path d="M80.25,123.95c.3,0,.61,0,.91.02,9.5.46,17.14,8.28,17.39,17.8.04,1.39-.09,2.78-.36,4.12-.43,2.11.1,4.28,1.46,5.95,1.35,1.66,3.36,2.61,5.5,2.61h10.69c7.29,0,13.22,5.93,13.22,13.22v10.69c0,1.68-1.37,3.04-3.05,3.04-.21,0-.42-.02-.63-.06-1.46-.3-2.96-.45-4.46-.45-.2,0-.39,0-.59,0-11.64.3-21.2,9.64-21.76,21.26-.3,6.19,1.88,12.07,6.15,16.54,4.27,4.48,10.02,6.94,16.2,6.94,1.53,0,3.06-.16,4.55-.47.2-.04.4-.06.6-.06,1.62,0,2.99,1.4,2.99,3.06v10.69c0,7.29-5.93,13.22-13.22,13.22H44.66c-7.29,0-13.22-5.93-13.22-13.22v-10.69c0-.82.32-1.6.9-2.18.57-.57,1.31-.88,2.09-.88.2,0,.4.02.6.06,1.49.31,3.02.47,4.55.47,6.18,0,11.94-2.47,16.2-6.94,4.26-4.47,6.45-10.35,6.15-16.54-.56-11.62-10.12-20.95-21.76-21.26-.2,0-.39,0-.59,0-1.5,0-3,.15-4.46.45-.21.04-.42.06-.63.06-1.68,0-3.05-1.37-3.05-3.04v-10.69c0-7.29,5.93-13.22,13.22-13.22h10.69c2.16,0,4.19-.96,5.55-2.64,1.34-1.65,1.86-3.78,1.43-5.85-.25-1.22-.38-2.47-.38-3.72,0-4.89,1.9-9.49,5.36-12.94,3.46-3.46,8.05-5.36,12.94-5.36h0M80.25,121.92c-11.23,0-20.34,9.11-20.34,20.34,0,1.42.15,2.8.43,4.13.65,3.12-1.8,6.04-4.99,6.04h-10.69c-8.42,0-15.25,6.83-15.25,15.25v10.69c0,2.87,2.34,5.08,5.08,5.08.34,0,.69-.03,1.04-.11,1.31-.27,2.66-.41,4.05-.41.18,0,.36,0,.53,0,10.53.27,19.27,8.8,19.78,19.32.57,11.69-8.75,21.35-20.32,21.35-1.42,0-2.8-.15-4.13-.43-.34-.07-.68-.11-1.02-.11-2.71,0-5.02,2.26-5.02,5.1v10.69c0,8.42,6.83,15.25,15.25,15.25h71.19c8.43,0,15.25-6.83,15.25-15.25v-10.69c0-2.84-2.31-5.1-5.02-5.1-.33,0-.67.03-1.02.11-1.33.28-2.71.43-4.13.43-11.57,0-20.88-9.66-20.32-21.35.51-10.52,9.25-19.05,19.78-19.32.18,0,.36,0,.53,0,1.39,0,2.74.14,4.05.41.35.07.7.11,1.04.11,2.74,0,5.08-2.21,5.08-5.08v-10.69c0-8.42-6.83-15.25-15.25-15.25h-10.69c-3.23,0-5.62-2.96-4.97-6.12.3-1.48.44-3.01.4-4.59-.27-10.53-8.8-19.27-19.32-19.78-.34-.02-.68-.02-1.01-.02h0Z" fill="#fff"/>
            </g>
            <path d="M73.04,206.04l6.68,6.47c.47.46,1.23.45,1.69-.01l6.37-6.37c1.39-1.39,3.64-1.39,5.03,0h0c1.39,1.39,1.39,3.64,0,5.03l-7.52,7.52c-2.57,2.57-6.74,2.61-9.35.08l-7.85-7.6c-1.41-1.37-1.45-3.62-.08-5.03h0c1.37-1.41,3.62-1.45,5.03-.08Z" fill="#fff" stroke="#fff" stroke-miterlimit="10" stroke-width="2.03"/>
        </g>
        <rect x="88.16" y="190.79" width="9.49" height="3.29" rx="1.64" ry="1.64" transform="translate(53.83 -17.65) rotate(15.23)" fill="#fff" stroke="#fff" stroke-miterlimit="10" stroke-width="2.03"/>
        <rect x="62.74" y="190.79" width="9.49" height="3.29" rx="1.64" ry="1.64" transform="translate(-48.19 24.49) rotate(-15.23)" fill="#fff" stroke="#fff" stroke-miterlimit="10" stroke-width="2.03"/>
    </g>
    <rect x="74.54" y=".5" width="9.92" height="29.77" rx="4.96" ry="4.96" fill="#4482fc"/>
    <rect x="104.31" y="9.43" width="9.92" height="29.77" rx="4.96" ry="4.96" transform="translate(49.2 -70.15) rotate(45)" fill="#4482fc"/>
    <rect x="44.78" y="9.43" width="9.92" height="29.77" rx="4.96" ry="4.96" transform="translate(102.1 6.33) rotate(135)" fill="#4482fc"/>
</svg>