<svg xmlns="http://www.w3.org/2000/svg" width="128" height="128" viewBox="0 0 128 128" fill="none">
    <path d="M112.42 48.0039C111.18 47.9719 109.972 48.0839 108.812 48.3239C106.324 48.8359 103.996 46.9479 103.996 44.4118V36.0038C103.996 29.3797 98.6203 24.0037 91.9962 24.0037H83.5881C81.0521 24.0037 79.1641 21.6757 79.6761 19.1877C79.9161 18.0276 80.0281 16.8196 79.9961 15.5796C79.7801 7.29956 73.0681 0.419507 64.796 0.0195041C55.5959 -0.428499 48.0039 6.89955 48.0039 16.0036C48.0039 17.1156 48.1159 18.2036 48.3399 19.2517C48.8519 21.7077 46.9239 24.0037 44.4118 24.0037H36.0038C29.3797 24.0037 24.0037 29.3797 24.0037 36.0038V44.4118C24.0037 46.9479 21.6757 48.8279 19.1876 48.3239C18.0276 48.0839 16.8196 47.9719 15.5796 48.0039C7.29957 48.2199 0.419507 54.9319 0.019504 63.204C-0.428499 72.4041 6.89957 79.9961 16.0036 79.9961C17.1156 79.9961 18.2037 79.8841 19.2517 79.6601C21.7077 79.1481 24.0037 81.0761 24.0037 83.5881V91.9962C24.0037 98.6203 29.3797 103.996 36.0038 103.996H44.4118C46.9479 103.996 48.8359 106.324 48.3239 108.812C48.0839 109.972 47.9719 111.18 48.0039 112.42C48.2199 120.7 54.9319 127.58 63.204 127.98C72.4041 128.428 79.9961 121.1 79.9961 111.996C79.9961 110.884 79.8841 109.796 79.6601 108.748C79.1481 106.292 81.0761 103.996 83.5881 103.996H91.9962C98.6203 103.996 103.996 98.6203 103.996 91.9962V83.5881C103.996 81.0761 106.292 79.1481 108.748 79.6601C109.796 79.8761 110.884 79.9961 111.996 79.9961C121.1 79.9961 128.421 72.3961 127.98 63.204C127.58 54.9319 120.7 48.2199 112.42 48.0039Z" fill="#238AFF"/>
    <path d="M54.692 63.9961H73.3002C75.6682 63.9961 77.5962 65.9241 77.5962 68.2921C77.5962 75.6362 71.6362 81.5962 64.2921 81.5962H63.7001C56.356 81.5962 50.396 75.6362 50.396 68.2921C50.396 65.9241 52.324 63.9961 54.692 63.9961Z" fill="white"/>
    <path d="M57.3878 55.3079C57.3878 53.4839 55.9078 52.0039 54.0838 52.0039C52.2598 52.0039 50.7798 53.4839 50.7798 55.3079C50.7798 55.8439 50.9238 56.3479 51.1478 56.7959H57.0198C57.2438 56.3479 57.3878 55.8439 57.3878 55.3079Z" fill="white"/>
    <path d="M77.2199 55.3079C77.2199 53.4839 75.7399 52.0039 73.9158 52.0039C72.0918 52.0039 70.6118 53.4839 70.6118 55.3079C70.6118 55.8439 70.7558 56.3479 70.9798 56.7959H76.8519C77.0759 56.3479 77.2199 55.8439 77.2199 55.3079Z" fill="white"/>
</svg>