<svg width="128" height="80" viewBox="0 0 128 80" fill="none" xmlns="http://www.w3.org/2000/svg">
<g id="Group">
<path id="Vector" d="M112.428 24.0104C111.188 23.9784 109.979 24.0904 108.819 24.3304C106.331 24.8425 104.004 22.9543 104.004 20.418V12.0092C104.004 5.37654 98.6275 0 92.0035 0H83.7395C81.2835 0 79.3955 2.20022 79.7955 4.62446C79.9795 5.72857 80.0435 6.88069 79.9795 8.04881C79.5475 16.1856 72.8435 22.8343 64.7075 23.1863C55.5555 23.5784 48.0035 16.2736 48.0035 7.20072C48.0035 6.33663 48.0755 5.48855 48.2115 4.66447C48.6035 2.23222 46.8115 0 44.3475 0H36.0035C29.3795 0 24.0035 5.37654 24.0035 12.0012V20.41C24.0035 22.9463 21.6755 24.8265 19.1875 24.3224C18.0275 24.0824 16.8195 23.9704 15.5795 24.0024C7.2995 24.2184 0.419504 30.9311 0.0195039 39.2039C-0.428496 48.4048 6.8995 55.9976 16.0035 55.9976C17.1155 55.9976 18.2035 55.8856 19.2515 55.6616C21.7075 55.1495 24.0035 57.0777 24.0035 59.59V67.9988C24.0035 74.6235 29.3795 80 36.0035 80H44.4115C46.9475 80 48.8355 77.6718 48.3235 75.1835C48.0835 74.0234 47.9715 72.8153 48.0035 71.5752C48.2195 63.2943 54.9315 56.4136 63.2035 56.0136C72.4035 55.5656 79.9955 62.8943 79.9955 71.9992C79.9955 73.1113 79.8835 74.1994 79.6595 75.2475C79.1475 77.7038 81.0755 80 83.5875 80H91.9955C98.6195 80 103.995 74.6235 103.995 67.9988V59.59C103.995 57.0777 106.291 55.1495 108.747 55.6616C109.796 55.8776 110.883 55.9976 111.995 55.9976C121.099 55.9976 128.42 48.3968 127.98 39.2039C127.58 30.9311 120.699 24.2184 112.419 24.0024L112.428 24.0104Z" fill="#F3F3F3"/>
<g id="Group_2">
<g id="Group_3">
<path id="Vector_2" d="M54.1795 34.6187C56.0042 34.6187 57.4835 33.1395 57.4835 31.3147C57.4835 29.49 56.0042 28.0107 54.1795 28.0107C52.3547 28.0107 50.8755 29.49 50.8755 31.3147C50.8755 33.1395 52.3547 34.6187 54.1795 34.6187Z" fill="white"/>
<path id="Vector_3" d="M74.0115 34.6187C75.8363 34.6187 77.3155 33.1395 77.3155 31.3147C77.3155 29.49 75.8363 28.0107 74.0115 28.0107C72.1868 28.0107 70.7075 29.49 70.7075 31.3147C70.7075 33.1395 72.1868 34.6187 74.0115 34.6187Z" fill="white"/>
</g>
<path id="Vector_4" d="M71.2115 44.0044H56.9794C55.433 44.0044 54.1794 45.258 54.1794 46.8044C54.1794 48.3508 55.433 49.6044 56.9794 49.6044H71.2115C72.7578 49.6044 74.0114 48.3508 74.0114 46.8044C74.0114 45.258 72.7578 44.0044 71.2115 44.0044Z" fill="white"/>
</g>
</g>
</svg>
