<svg xmlns="http://www.w3.org/2000/svg" width="330" height="330" viewBox="0 0 330 330" fill="none">
    <g filter="url(#filter0_d_40000436_31937)">
        <path d="M210.415 159.982C210.487 159.384 210.513 158.779 210.494 158.155C210.318 151.428 204.865 145.838 198.144 145.513C190.669 145.149 184.5 151.103 184.5 158.5C184.5 158.974 184.526 159.442 184.578 159.904C184.87 162.608 182.849 165 180.125 165H165V180.06C165 182.758 167.34 184.89 170.018 184.584C170.616 184.513 171.22 184.487 171.844 184.506C178.572 184.682 184.162 190.135 184.487 196.856C184.851 204.331 178.897 210.5 171.5 210.5C171.025 210.5 170.557 210.474 170.096 210.422C167.392 210.129 165 212.151 165 214.874V230H220.25C225.632 230 230 225.632 230 220.25V165H214.939C212.242 165 210.11 162.66 210.415 159.982Z" fill="#238AFF"/>
        <path d="M198.143 145.513C204.864 145.838 210.318 151.428 210.493 158.155C210.506 158.773 210.48 159.384 210.415 159.982C210.103 162.66 212.242 165 214.939 165H230C230 129.101 200.899 100 165 100V115.06C165 117.758 162.66 119.89 159.982 119.584C159.384 119.513 158.779 119.487 158.155 119.507C151.428 119.682 145.838 125.135 145.513 131.856C145.149 139.331 151.103 145.5 158.5 145.5C158.974 145.5 159.442 145.474 159.904 145.422C162.608 145.129 165 147.151 165 149.875V165H180.125C182.849 165 184.87 162.608 184.578 159.904C184.526 159.443 184.5 158.974 184.5 158.5C184.5 151.103 190.675 145.155 198.143 145.513Z" fill="#8EC3FF"/>
        <path d="M145.513 131.856C145.838 125.135 151.428 119.682 158.155 119.507C158.773 119.493 159.384 119.519 159.982 119.584C162.66 119.896 165 117.758 165 115.06V100C129.101 100 100 129.101 100 165H115.06C117.758 165 119.89 167.34 119.584 170.018C119.513 170.616 119.487 171.22 119.507 171.844C119.682 178.572 125.135 184.162 131.856 184.487C139.331 184.851 145.5 178.897 145.5 171.5C145.5 171.025 145.474 170.557 145.422 170.096C145.129 167.392 147.151 165 149.875 165H165V149.875C165 147.151 162.608 145.129 159.904 145.422C159.443 145.474 158.974 145.5 158.5 145.5C151.103 145.5 145.155 139.325 145.513 131.856Z" fill="white"/>
        <path d="M131.856 184.487C125.135 184.162 119.682 178.572 119.507 171.844C119.493 171.227 119.519 170.616 119.584 170.018C119.896 167.34 117.758 165 115.06 165H100C100 200.899 129.101 230 165 230V214.939C165 212.242 167.34 210.11 170.018 210.415C170.616 210.487 171.22 210.513 171.844 210.494C178.572 210.318 184.162 204.865 184.487 198.144C184.851 190.669 178.897 184.5 171.5 184.5C171.025 184.5 170.557 184.526 170.096 184.578C167.392 184.87 165 182.849 165 180.125V165H149.875C147.151 165 145.129 167.392 145.422 170.096C145.474 170.557 145.5 171.025 145.5 171.5C145.5 178.897 139.325 184.844 131.856 184.487Z" fill="#0051AE"/>
    </g>
    <defs>
        <filter id="filter0_d_40000436_31937" x="0" y="0" width="330" height="330" filterUnits="userSpaceOnUse" color-interpolation-filters="sRGB">
            <feFlood flood-opacity="0" result="BackgroundImageFix"/>
            <feColorMatrix in="SourceAlpha" type="matrix" values="0 0 0 0 0 0 0 0 0 0 0 0 0 0 0 0 0 0 127 0" result="hardAlpha"/>
            <feOffset/>
            <feGaussianBlur stdDeviation="50"/>
            <feComposite in2="hardAlpha" operator="out"/>
            <feColorMatrix type="matrix" values="0 0 0 0 0 0 0 0 0 0.317647 0 0 0 0 0.682353 0 0 0 0.15 0"/>
            <feBlend mode="normal" in2="BackgroundImageFix" result="effect1_dropShadow_40000436_31937"/>
            <feBlend mode="normal" in="SourceGraphic" in2="effect1_dropShadow_40000436_31937" result="shape"/>
        </filter>
    </defs>
</svg>