<svg width="36" height="36" viewBox="0 0 36 36" fill="none" xmlns="http://www.w3.org/2000/svg">
<path d="M32 14.9091C32 25.7273 18 35 18 35C18 35 4 25.7273 4 14.9091C4 11.2202 5.475 7.68234 8.1005 5.07388C10.726 2.46542 14.287 1 18 1C21.713 1 25.274 2.46542 27.8995 5.07388C30.525 7.68234 32 11.2202 32 14.9091Z" fill="#4CAF50"/>
<path d="M13.8452 18.9545V17.017L18.7031 9.36364H20.3736V12.0455H19.3849L16.3224 16.892V16.983H23.2259V18.9545H13.8452ZM19.4304 21V18.3636L19.4759 17.5057V9.36364H21.7827V21H19.4304Z" fill="white"/>
</svg>
