<svg width="36" height="36" viewBox="0 0 36 36" fill="none" xmlns="http://www.w3.org/2000/svg">
<path d="M32 14.9091C32 25.7273 18 35 18 35C18 35 4 25.7273 4 14.9091C4 11.2202 5.475 7.68234 8.1005 5.07388C10.726 2.46542 14.287 1 18 1C21.713 1 25.274 2.46542 27.8995 5.07388C30.525 7.68234 32 11.2202 32 14.9091Z" fill="#4CAF50"/>
<path d="M18.4709 21.1591C17.6224 21.1591 16.8667 21.0133 16.2038 20.7216C15.5447 20.4261 15.0239 20.0208 14.6413 19.5057C14.2625 18.9867 14.0675 18.3883 14.0561 17.7102H16.5334C16.5485 17.9943 16.6413 18.2443 16.8118 18.4602C16.986 18.6723 17.2171 18.8371 17.505 18.9545C17.7929 19.072 18.1167 19.1307 18.4766 19.1307C18.8516 19.1307 19.183 19.0644 19.4709 18.9318C19.7588 18.7992 19.9841 18.6155 20.147 18.3807C20.3099 18.1458 20.3913 17.875 20.3913 17.5682C20.3913 17.2576 20.3042 16.983 20.13 16.7443C19.9595 16.5019 19.7133 16.3125 19.3913 16.1761C19.0732 16.0398 18.6944 15.9716 18.255 15.9716H17.1697V14.1648H18.255C18.6262 14.1648 18.9538 14.1004 19.2379 13.9716C19.5258 13.8428 19.7493 13.6648 19.9084 13.4375C20.0675 13.2064 20.147 12.9375 20.147 12.6307C20.147 12.339 20.0769 12.0833 19.9368 11.8636C19.8004 11.6402 19.6072 11.4659 19.3572 11.3409C19.111 11.2159 18.8232 11.1534 18.4936 11.1534C18.1603 11.1534 17.8554 11.214 17.5788 11.3352C17.3023 11.4527 17.0807 11.6212 16.9141 11.8409C16.7474 12.0606 16.6584 12.3182 16.647 12.6136H14.2891C14.3004 11.9432 14.4917 11.3523 14.8629 10.8409C15.2341 10.3295 15.7341 9.92992 16.3629 9.64205C16.9955 9.35038 17.7095 9.20455 18.505 9.20455C19.308 9.20455 20.0107 9.35038 20.6129 9.64205C21.2152 9.93371 21.683 10.3277 22.0163 10.8239C22.3535 11.3163 22.5201 11.8693 22.5163 12.483C22.5201 13.1345 22.3175 13.678 21.9084 14.1136C21.5031 14.5492 20.9747 14.8258 20.3232 14.9432V15.0341C21.1792 15.1439 21.8307 15.4413 22.2777 15.9261C22.7285 16.4072 22.9519 17.0095 22.9482 17.733C22.9519 18.3958 22.7607 18.9848 22.3743 19.5C21.9917 20.0152 21.4633 20.4205 20.7891 20.7159C20.1148 21.0114 19.3421 21.1591 18.4709 21.1591Z" fill="white"/>
</svg>
