<svg width="36" height="36" viewBox="0 0 36 36" fill="none" xmlns="http://www.w3.org/2000/svg">
<path d="M32 14.9091C32 25.7273 18 35 18 35C18 35 4 25.7273 4 14.9091C4 11.2202 5.475 7.68234 8.1005 5.07388C10.726 2.46542 14.287 1 18 1C21.713 1 25.274 2.46542 27.8995 5.07388C30.525 7.68234 32 11.2202 32 14.9091Z" fill="#4CAF50"/>
<path d="M18.3722 9.20455C18.9706 9.20455 19.5464 9.30492 20.0994 9.50568C20.6563 9.70644 21.1525 10.0265 21.5881 10.4659C22.0275 10.9053 22.3741 11.4886 22.6278 12.2159C22.8854 12.9394 23.0161 13.8277 23.0199 14.8807C23.0199 15.8693 22.9081 16.7519 22.6847 17.5284C22.465 18.3011 22.1487 18.9583 21.7358 19.5C21.3229 20.0417 20.8248 20.4545 20.2415 20.7386C19.6581 21.0189 19.0066 21.1591 18.2869 21.1591C17.5104 21.1591 16.8248 21.0095 16.2301 20.7102C15.6354 20.4072 15.1563 19.9962 14.7926 19.4773C14.4328 18.9545 14.215 18.3674 14.1392 17.7159H16.5653C16.66 18.1402 16.8589 18.4697 17.1619 18.7045C17.465 18.9356 17.84 19.0511 18.2869 19.0511C19.0445 19.0511 19.6203 18.7216 20.0142 18.0625C20.4081 17.3996 20.607 16.4924 20.6108 15.3409H20.5312C20.357 15.6818 20.1222 15.9754 19.8267 16.2216C19.5313 16.464 19.1922 16.6515 18.8097 16.7841C18.4309 16.9167 18.0275 16.983 17.5994 16.983C16.9138 16.983 16.3021 16.822 15.7642 16.5C15.2263 16.178 14.8021 15.7348 14.4915 15.1705C14.1809 14.6061 14.0256 13.9621 14.0256 13.2386C14.0218 12.4583 14.2017 11.7633 14.5653 11.1534C14.929 10.5436 15.4366 10.0663 16.0881 9.72159C16.7434 9.37311 17.5047 9.20076 18.3722 9.20455ZM18.3892 11.1364C18.0066 11.1364 17.6657 11.2273 17.3665 11.4091C17.071 11.5909 16.8362 11.8352 16.6619 12.142C16.4915 12.4489 16.4081 12.7917 16.4119 13.1705C16.4119 13.553 16.4953 13.8977 16.6619 14.2045C16.8324 14.5076 17.0634 14.75 17.3551 14.9318C17.6506 15.1098 17.9877 15.1989 18.3665 15.1989C18.6506 15.1989 18.9138 15.1458 19.1562 15.0398C19.3987 14.9337 19.6089 14.7879 19.7869 14.6023C19.9688 14.4129 20.1108 14.1951 20.2131 13.9489C20.3153 13.7027 20.3665 13.4413 20.3665 13.1648C20.3627 12.7973 20.2756 12.4602 20.1051 12.1534C19.9347 11.8466 19.6998 11.6004 19.4006 11.4148C19.1013 11.2292 18.7642 11.1364 18.3892 11.1364Z" fill="white"/>
</svg>
