<svg width="36" height="36" viewBox="0 0 36 36" fill="none" xmlns="http://www.w3.org/2000/svg">
<path d="M32 14.9091C32 25.7273 18 35 18 35C18 35 4 25.7273 4 14.9091C4 11.2202 5.475 7.68234 8.1005 5.07388C10.726 2.46542 14.287 1 18 1C21.713 1 25.274 2.46542 27.8995 5.07388C30.525 7.68234 32 11.2202 32 14.9091Z" fill="#4CAF50"/>
<path d="M18.6278 21.1591C18.0294 21.1553 17.4517 21.0549 16.8949 20.858C16.3419 20.661 15.8456 20.3409 15.4062 19.8977C14.9669 19.4545 14.6184 18.8674 14.3608 18.1364C14.107 17.4053 13.9801 16.5076 13.9801 15.4432C13.9839 14.4659 14.0956 13.5928 14.3153 12.8239C14.5388 12.0511 14.857 11.3958 15.2699 10.858C15.6866 10.3201 16.1847 9.91098 16.7642 9.63068C17.3438 9.34659 17.9934 9.20455 18.7131 9.20455C19.4896 9.20455 20.1752 9.35606 20.7699 9.65909C21.3646 9.95833 21.8419 10.3655 22.2017 10.8807C22.5653 11.3958 22.785 11.9735 22.8608 12.6136H20.4347C20.34 12.2083 20.1411 11.8902 19.8381 11.6591C19.535 11.428 19.16 11.3125 18.7131 11.3125C17.9555 11.3125 17.3797 11.642 16.9858 12.3011C16.5956 12.9602 16.3968 13.8561 16.3892 14.9886H16.4688C16.643 14.6439 16.8778 14.3504 17.1733 14.108C17.4725 13.8617 17.8116 13.6742 18.1903 13.5455C18.5729 13.4129 18.9763 13.3466 19.4006 13.3466C20.09 13.3466 20.7036 13.5095 21.2415 13.8352C21.7794 14.1572 22.2036 14.6004 22.5142 15.1648C22.8248 15.7292 22.9801 16.375 22.9801 17.1023C22.9801 17.8902 22.7964 18.5909 22.429 19.2045C22.0653 19.8182 21.5559 20.2992 20.9006 20.6477C20.2491 20.9924 19.4915 21.1629 18.6278 21.1591ZM18.6165 19.2273C18.9953 19.2273 19.3343 19.1364 19.6335 18.9545C19.9328 18.7727 20.1676 18.5265 20.3381 18.2159C20.5085 17.9053 20.5938 17.5568 20.5938 17.1705C20.5938 16.7841 20.5085 16.4375 20.3381 16.1307C20.1714 15.8239 19.9403 15.5795 19.6449 15.3977C19.3494 15.2159 19.0123 15.125 18.6335 15.125C18.3494 15.125 18.0862 15.178 17.8438 15.2841C17.6051 15.3902 17.3949 15.5379 17.2131 15.7273C17.035 15.9167 16.8949 16.1364 16.7926 16.3864C16.6903 16.6326 16.6392 16.8958 16.6392 17.1761C16.6392 17.5511 16.7244 17.8939 16.8949 18.2045C17.0691 18.5152 17.304 18.7633 17.5994 18.9489C17.8987 19.1345 18.2377 19.2273 18.6165 19.2273Z" fill="white"/>
</svg>
