<svg width="36" height="36" viewBox="0 0 36 36" fill="none" xmlns="http://www.w3.org/2000/svg">
<path d="M32 14.9091C32 25.7273 18 35 18 35C18 35 4 25.7273 4 14.9091C4 11.2202 5.475 7.68234 8.1005 5.07388C10.726 2.46542 14.287 1 18 1C21.713 1 25.274 2.46542 27.8995 5.07388C30.525 7.68234 32 11.2202 32 14.9091Z" fill="#4CAF50"/>
<path d="M18.5369 21.1591C17.7339 21.1591 17.018 21.0114 16.3892 20.7159C15.7642 20.4205 15.268 20.0133 14.9006 19.4943C14.5331 18.9754 14.3419 18.3807 14.3267 17.7102H16.7131C16.7396 18.161 16.929 18.5265 17.2812 18.8068C17.6335 19.0871 18.0521 19.2273 18.5369 19.2273C18.9233 19.2273 19.2642 19.142 19.5597 18.9716C19.8589 18.7973 20.0919 18.5568 20.2585 18.25C20.429 17.9394 20.5142 17.5833 20.5142 17.1818C20.5142 16.7727 20.4271 16.4129 20.2528 16.1023C20.0824 15.7917 19.8456 15.5492 19.5426 15.375C19.2396 15.2008 18.893 15.1117 18.5028 15.108C18.1619 15.108 17.8305 15.178 17.5085 15.3182C17.1903 15.4583 16.9422 15.6496 16.7642 15.892L14.5767 15.5L15.1278 9.36364H22.2415V11.375H17.1562L16.8551 14.2898H16.9233C17.1278 14.0019 17.4366 13.7633 17.8494 13.5739C18.2623 13.3845 18.7244 13.2898 19.2358 13.2898C19.9366 13.2898 20.5616 13.4545 21.1108 13.7841C21.66 14.1136 22.0938 14.5663 22.4119 15.142C22.7301 15.714 22.8873 16.3731 22.8835 17.1193C22.8873 17.9034 22.7055 18.6004 22.3381 19.2102C21.9744 19.8163 21.465 20.2936 20.8097 20.642C20.1581 20.9867 19.4006 21.1591 18.5369 21.1591Z" fill="white"/>
</svg>
