<svg width="36" height="36" viewBox="0 0 36 36" fill="none" xmlns="http://www.w3.org/2000/svg">
<path d="M32 14.9091C32 25.7273 18 35 18 35C18 35 4 25.7273 4 14.9091C4 11.2202 5.475 7.68234 8.1005 5.07388C10.726 2.46542 14.287 1 18 1C21.713 1 25.274 2.46542 27.8995 5.07388C30.525 7.68234 32 11.2202 32 14.9091Z" fill="#4CAF50"/>
<path d="M18.495 21.1591C17.62 21.1591 16.8416 21.017 16.1598 20.733C15.4818 20.4451 14.9496 20.053 14.5632 19.5568C14.1768 19.0606 13.9837 18.4981 13.9837 17.8693C13.9837 17.3845 14.0935 16.9394 14.3132 16.5341C14.5367 16.125 14.8397 15.786 15.2223 15.517C15.6049 15.2443 16.0329 15.0701 16.5064 14.9943V14.9148C15.8852 14.7898 15.3814 14.4886 14.995 14.0114C14.6087 13.5303 14.4155 12.9716 14.4155 12.3352C14.4155 11.733 14.5916 11.197 14.9439 10.7273C15.2962 10.2538 15.7791 9.88258 16.3928 9.61364C17.0102 9.34091 17.7109 9.20455 18.495 9.20455C19.2791 9.20455 19.978 9.34091 20.5916 9.61364C21.209 9.88636 21.6939 10.2595 22.0462 10.733C22.3984 11.2027 22.5765 11.7367 22.5803 12.3352C22.5765 12.9754 22.3795 13.5341 21.9893 14.0114C21.5992 14.4886 21.0992 14.7898 20.4893 14.9148V14.9943C20.9553 15.0701 21.3776 15.2443 21.7564 15.517C22.139 15.786 22.442 16.125 22.6655 16.5341C22.8928 16.9394 23.0083 17.3845 23.0121 17.8693C23.0083 18.4981 22.8132 19.0606 22.4268 19.5568C22.0405 20.053 21.5064 20.4451 20.8246 20.733C20.1465 21.017 19.37 21.1591 18.495 21.1591ZM18.495 19.3523C18.8852 19.3523 19.2261 19.2822 19.5178 19.142C19.8094 18.9981 20.0367 18.8011 20.1996 18.5511C20.3662 18.2973 20.4496 18.0057 20.4496 17.6761C20.4496 17.339 20.3643 17.0417 20.1939 16.7841C20.0234 16.5227 19.7924 16.3182 19.5007 16.1705C19.209 16.0189 18.8738 15.9432 18.495 15.9432C18.12 15.9432 17.7848 16.0189 17.4893 16.1705C17.1939 16.3182 16.9609 16.5227 16.7905 16.7841C16.6238 17.0417 16.5405 17.339 16.5405 17.6761C16.5405 18.0057 16.6219 18.2973 16.7848 18.5511C16.9477 18.8011 17.1768 18.9981 17.4723 19.142C17.7678 19.2822 18.1087 19.3523 18.495 19.3523ZM18.495 14.1534C18.8208 14.1534 19.1106 14.0871 19.3643 13.9545C19.6181 13.822 19.817 13.6383 19.9609 13.4034C20.1049 13.1686 20.1768 12.8977 20.1768 12.5909C20.1768 12.2879 20.1049 12.0227 19.9609 11.7955C19.817 11.5644 19.62 11.3845 19.37 11.2557C19.12 11.1231 18.8284 11.0568 18.495 11.0568C18.1655 11.0568 17.8738 11.1231 17.62 11.2557C17.3662 11.3845 17.1674 11.5644 17.0234 11.7955C16.8833 12.0227 16.8132 12.2879 16.8132 12.5909C16.8132 12.8977 16.8852 13.1686 17.0291 13.4034C17.1731 13.6383 17.3719 13.822 17.6257 13.9545C17.8795 14.0871 18.1693 14.1534 18.495 14.1534Z" fill="white"/>
</svg>
