<svg width="36" height="36" viewBox="0 0 36 36" fill="none" xmlns="http://www.w3.org/2000/svg">
<path d="M32 14.9091C32 25.7273 18 35 18 35C18 35 4 25.7273 4 14.9091C4 11.2202 5.475 7.68234 8.1005 5.07388C10.726 2.46542 14.287 1 18 1C21.713 1 25.274 2.46542 27.8995 5.07388C30.525 7.68234 32 11.2202 32 14.9091Z" fill="#4CAF50"/>
<path d="M14.4041 21V19.2273L18.5462 15.392C18.8984 15.0511 19.1939 14.7443 19.4325 14.4716C19.675 14.1989 19.8587 13.9318 19.9837 13.6705C20.1087 13.4053 20.1712 13.1193 20.1712 12.8125C20.1712 12.4716 20.0935 12.178 19.9382 11.9318C19.7829 11.6818 19.5708 11.4905 19.3018 11.358C19.0329 11.2216 18.728 11.1534 18.3871 11.1534C18.031 11.1534 17.7204 11.2254 17.4553 11.3693C17.1901 11.5133 16.9856 11.7197 16.8416 11.9886C16.6977 12.2576 16.6257 12.5777 16.6257 12.9489H14.2905C14.2905 12.1875 14.4628 11.5265 14.8075 10.9659C15.1522 10.4053 15.6352 9.97159 16.2564 9.66477C16.8776 9.35795 17.5935 9.20455 18.4041 9.20455C19.2375 9.20455 19.9628 9.35227 20.5803 9.64773C21.2015 9.93939 21.6844 10.3447 22.0291 10.8636C22.3738 11.3826 22.5462 11.9773 22.5462 12.6477C22.5462 13.0871 22.459 13.5208 22.2848 13.9489C22.1143 14.3769 21.8094 14.8523 21.37 15.375C20.9306 15.8939 20.3113 16.517 19.5121 17.2443L17.8132 18.9091V18.9886H22.6996V21H14.4041Z" fill="white"/>
</svg>
